# xmcd
#
# Track frame offsets:
# 150
# 13616
# 31167
# 47256
# 61987
# 78001
# 88393
# 101213
# 114714
# 130864
# 147700
# 161142
#
# Disc length: 2402 seconds
#
#
# Revision: 0
# Processed by: cddbd v1.5.1PL2 Copyright (c) Steve Scherf et al.
# Submitted via: FreeRIP 2.944 
#
DISCID=9f09600c
DTITLE=Olivia Newton-John - Come On Over
DYEAR=1976
DGENRE=Pop
TTITLE0=Jolene
TTITLE1=Pony Ride
TTITLE2=Come On Over
TTITLE3=It'll Be Me
TTITLE4=Greensleeves
TTITLE5=Blue Eyes Crying In The Rain
TTITLE6=Don't Throw It All Away
TTITLE7=Who Are You Now?
TTITLE8=Smile For Me
TTITLE9=Small Talk And Pride
TTITLE10=Wrap Me In Your Arms
TTITLE11=The Long And Winding Road
EXTD=
EXTT0=
EXTT1=
EXTT2=
EXTT3=
EXTT4=
EXTT5=
EXTT6=
EXTT7=
EXTT8=
EXTT9=
EXTT10=
EXTT11=
PLAYORDER=
